<svg width="96" height="96" viewBox="0 0 96 96" fill="none" xmlns="http://www.w3.org/2000/svg">
  <rect x="8" y="8" width="80" height="80" rx="24" fill="#FFFFFF" fill-opacity="0.9"/>
  <rect x="8" y="8" width="80" height="80" rx="24" stroke="#1D2430" stroke-opacity="0.08"/>
  <path d="M28 30C28 28.8954 28.8954 28 30 28H66C67.1046 28 68 28.8954 68 30V66C68 67.1046 67.1046 68 66 68H30C28.8954 68 28 67.1046 28 66V30Z" fill="url(#paint0_linear_9_2)"/>
  <circle cx="37.5" cy="37.5" r="5.5" fill="#111827"/>
  <circle cx="58.5" cy="37.5" r="5.5" fill="#B8925C"/>
  <circle cx="37.5" cy="58.5" r="5.5" fill="#B8925C"/>
  <circle cx="58.5" cy="58.5" r="5.5" fill="#111827"/>
  <path d="M43 37.5H53" stroke="#111827" stroke-opacity="0.28" stroke-width="2" stroke-linecap="round"/>
  <path d="M37.5 43V53" stroke="#111827" stroke-opacity="0.28" stroke-width="2" stroke-linecap="round"/>
  <path d="M58.5 43V53" stroke="#111827" stroke-opacity="0.28" stroke-width="2" stroke-linecap="round"/>
  <path d="M43 58.5H53" stroke="#111827" stroke-opacity="0.28" stroke-width="2" stroke-linecap="round"/>
  <defs>
    <linearGradient id="paint0_linear_9_2" x1="28" y1="28" x2="68" y2="68" gradientUnits="userSpaceOnUse">
      <stop stop-color="#F3F1EC"/>
      <stop offset="1" stop-color="#E6E2D9"/>
    </linearGradient>
  </defs>
</svg>
